# xmcd CD database file
#
# Track frame offsets:
#	151
#	29603
#	41624
#	54398
#	71934
#	106248
#	118433
#	132740
#	154939
#	177192
#	189575
#	202772
#	215414
#	228715
#	245762
#	258158
#	273172
#	288982
#	301477
#	316447
#
# Disc length: 4450 seconds
#
# Revision: 1
# Processed by: cddbd v1.5.1PL2 Copyright (c) Steve Scherf et al.
# Submitted via: CDex 1.70beta2
#
DISCID=37116014
DTITLE=Various Artist - History of Jazz
DYEAR=1953
DGENRE=Jazz
TTITLE0=THESE FOOLISH THINGS (Link-Marvey-Strachey) Dave Brubeck Quartet with Paul Desmond - Mar 2
TTITLE1=UNDECIDED (Shavers-Robin) George Shearing Quintet feat Toots Thielemans - Mar 13
TTITLE2=BAIA (Barroso-Gilbert) Stan Kenton and His Orchestra - Apr 8
TTITLE3=TEMPUS FUGIT (Powell) Miles Davis Sextet - Apr 20
TTITLE4=NIGHT IN TUNISIA (Gillespie-Paparelli) Quintet of The Year (Gillespie, Parker, Powell, Mingus, Roach) - May 15
TTITLE5=MESS AROUND (Nugetre) Ray Charles - May 17
TTITLE6=I CAN'T BELIEVE YOU'RE IN LOVE WITH ME (McHugh-Gaskill) Gerry Mulligan, Chet Baker and Lee Konitz - Jun 10
TTITLE7=GET HAPPY (Koehler-Arlen) Jay Jay Johnson Sextet feat Clifford Brown - Jun 22
TTITLE8=AH, MOORE (Cohn) Al Cohn Quintet - Jun 23
TTITLE9=HOW HIGH THE MOON (Lewis-Hamilton) The Metronome All Stars - Jul 9
TTITLE10=BLUES FOR BRANDO (Stevens) Shorty Rogers and His Giants - Jul 14
TTITLE11=FUGUE (Giuffre) Shelly Manne and His Man - Jul 20
TTITLE12=AUTUMN IN NEW YORK (Vernon-Duke) Bud Powell Trio - Aug 14
TTITLE13=LOVE FOR SALE (Porter) Oscar Peterson Trio - Sep 19
TTITLE14=IMAGINATION (Burke-VanHeusen) The Dave Pell Octet feat Lucy Ann Polk - Sep
TTITLE15=IN A SENTIMENTAL MOOD (Ellington-Kurtz-Mills) Sonny Rollins and The Modern Jazz Quartet - Oct 7
TTITLE16=OPUS DE FUNK (Silver) Horace Silver Trio - Oct 23
TTITLE17=ASK ME (Hinderling-Pollard) Chris Connor acc by Sy Oliver Orchestra - Dec 17-18
TTITLE18=SALUTE TO CHARLIE CHRISTIAN (Kessel) Barney Kessel Quartet - Dec 19
TTITLE19=JUST A-SITTIN' AND A-ROCKIN' (Ellington-Strayhorn-Gaines) Duke Ellington and His Famous Orchestra - Dec 21
EXTD=YEAR: 1953
EXTT0=
EXTT1=
EXTT2=
EXTT3=
EXTT4=
EXTT5=
EXTT6=
EXTT7=
EXTT8=
EXTT9=
EXTT10=
EXTT11=
EXTT12=
EXTT13=
EXTT14=
EXTT15=
EXTT16=
EXTT17=
EXTT18=
EXTT19=
PLAYORDER=
